<svg width="12" height="21" viewBox="0 0 12 21" fill="none" xmlns="http://www.w3.org/2000/svg">
<path d="M11.3101 8.93506L2.8201 0.460055C2.68065 0.319462 2.51475 0.207871 2.33196 0.131718C2.14917 0.0555651 1.95311 0.0163574 1.7551 0.0163574C1.55708 0.0163574 1.36102 0.0555651 1.17823 0.131718C0.995441 0.207871 0.82954 0.319462 0.690095 0.460055C0.410719 0.741099 0.253906 1.12128 0.253906 1.51755C0.253906 1.91383 0.410719 2.29401 0.690095 2.57506L8.1151 10.0751L0.690095 17.5001C0.410719 17.7811 0.253906 18.1613 0.253906 18.5576C0.253906 18.9538 0.410719 19.334 0.690095 19.6151C0.829017 19.7568 0.994685 19.8695 1.1775 19.9468C1.36031 20.024 1.55663 20.0642 1.7551 20.0651C1.95356 20.0642 2.14988 20.024 2.33269 19.9468C2.51551 19.8695 2.68117 19.7568 2.8201 19.6151L11.3101 11.1401C11.4624 10.9996 11.5839 10.8291 11.667 10.6394C11.7501 10.4496 11.793 10.2447 11.793 10.0376C11.793 9.8304 11.7501 9.6255 11.667 9.43575C11.5839 9.246 11.4624 9.07552 11.3101 8.93506Z" fill="#504F4F"/>
</svg>
